<?xml version="1.0" encoding="UTF-8"?>
<svg width="242px" height="24px" viewBox="0 0 242 24" version="1.1" xmlns="http://www.w3.org/2000/svg" xmlns:xlink="http://www.w3.org/1999/xlink">
    <title>Craig Booker Text Logo</title>
    <g id="Craig-Booker-Text-Logo" stroke="none" stroke-width="1" fill="none" fill-rule="evenodd">
        <g id="Group-Copy-3" transform="translate(1.000000, 2.000000)" fill="#000000" fill-rule="nonzero">
            <path d="M12.25875,20.79 C12.67875,20.79 13.111875,20.776875 13.558125,20.750625 C14.004375,20.724375 14.4375,20.689375 14.8575,20.645625 C15.2775,20.601875 15.67125,20.540625 16.03875,20.461875 C16.40625,20.383125 16.72125,20.29125 16.98375,20.18625 C17.21125,20.09875 17.364375,20.006875 17.443125,19.910625 C17.521875,19.814375 17.59625,19.6525 17.66625,19.425 C17.73625,19.1975 17.80625,18.904375 17.87625,18.545625 C17.94625,18.186875 18.0075,17.828125 18.06,17.469375 C18.1125,17.110625 18.15625,16.786875 18.19125,16.498125 C18.22625,16.209375 18.24375,16.02125 18.24375,15.93375 C18.24375,15.82875 18.22625,15.736875 18.19125,15.658125 C18.15625,15.579375 18.095,15.54 18.0075,15.54 C17.9025,15.54 17.828125,15.575 17.784375,15.645 C17.740625,15.715 17.70125,15.855 17.66625,16.065 C17.61375,16.31 17.50875,16.59875 17.35125,16.93125 C17.19375,17.26375 17.00125,17.5525 16.77375,17.7975 C16.24875,18.41 15.61,18.808125 14.8575,18.991875 C14.105,19.175625 13.1425,19.2675 11.97,19.2675 C11.095,19.2675 10.171875,19.075 9.200625,18.69 C8.229375,18.305 7.336875,17.723125 6.523125,16.944375 C5.709375,16.165625 5.035625,15.19 4.501875,14.0175 C3.968125,12.845 3.70125,11.48 3.70125,9.9225 C3.70125,8.645 3.863125,7.415625 4.186875,6.234375 C4.510625,5.053125 5.15375,4.01625 6.11625,3.12375 C6.69375,2.59875 7.371875,2.19625 8.150625,1.91625 C8.929375,1.63625 9.89625,1.49625 11.05125,1.49625 C12.25875,1.49625 13.339375,1.65375 14.293125,1.96875 C15.246875,2.28375 15.9425,2.66875 16.38,3.12375 C16.7125,3.47375 16.961875,3.863125 17.128125,4.291875 C17.294375,4.720625 17.38625,5.13625 17.40375,5.53875 C17.40375,5.92375 17.49125,6.11625 17.66625,6.11625 C17.78875,6.11625 17.8675,6.06375 17.9025,5.95875 C17.9375,5.85375 17.96375,5.705 17.98125,5.5125 C17.99875,5.39 18.0075,5.215 18.0075,4.9875 C18.0075,4.7425 18.011875,4.48875 18.020625,4.22625 C18.029375,3.96375 18.03375,3.6925 18.03375,3.4125 C18.03375,3.1325 18.0425,2.8875 18.06,2.6775 C18.095,2.2225 18.125625,1.894375 18.151875,1.693125 C18.178125,1.491875 18.19125,1.33875 18.19125,1.23375 C18.19125,1.04125 18.06,0.93625 17.7975,0.91875 C17.395,0.88375 16.98375,0.818125 16.56375,0.721875 C16.14375,0.625625 15.68,0.5425 15.1725,0.4725 C14.56,0.385 13.978125,0.319375 13.426875,0.275625 C12.875625,0.231875 12.18875,0.21 11.36625,0.21 C9.40625,0.21 7.77,0.455 6.4575,0.945 C5.145,1.435 4.01625,2.1175 3.07125,2.9925 C2.44125,3.57 1.925,4.186875 1.5225,4.843125 C1.12,5.499375 0.809375,6.146875 0.590625,6.785625 C0.371875,7.424375 0.21875,8.04125 0.13125,8.63625 C0.04375,9.23125 0,9.7475 0,10.185 C0,10.815 0.048125,11.466875 0.144375,12.140625 C0.240625,12.814375 0.41125,13.488125 0.65625,14.161875 C0.90125,14.835625 1.23375,15.491875 1.65375,16.130625 C2.07375,16.769375 2.6075,17.36875 3.255,17.92875 C4.4625,18.97875 5.814375,19.718125 7.310625,20.146875 C8.806875,20.575625 10.45625,20.79 12.25875,20.79 Z M42.778056,20.4225 C43.110556,20.4225 43.276806,20.335 43.276806,20.16 C43.276806,20.02 43.171806,19.95 42.961806,19.95 C42.751806,19.95 42.506806,19.92375 42.226806,19.87125 C42.121806,19.85375 41.981806,19.823125 41.806806,19.779375 C41.631806,19.735625 41.417431,19.6525 41.163681,19.53 C40.909931,19.4075 40.625556,19.2325 40.310556,19.005 C39.995556,18.7775 39.654306,18.47125 39.286806,18.08625 C38.499306,17.26375 37.646181,16.279375 36.727431,15.133125 C35.808681,13.986875 34.763056,12.67 33.590556,11.1825 C34.255556,10.64 34.811181,10.119375 35.257431,9.620625 C35.703681,9.121875 36.058056,8.63625 36.320556,8.16375 C36.583056,7.69125 36.771181,7.21875 36.884931,6.74625 C36.998681,6.27375 37.055556,5.7925 37.055556,5.3025 C37.055556,4.865 36.998681,4.45375 36.884931,4.06875 C36.771181,3.68375 36.622431,3.338125 36.438681,3.031875 C36.254931,2.725625 36.058056,2.45875 35.848056,2.23125 C35.638056,2.00375 35.445556,1.82875 35.270556,1.70625 C34.553056,1.21625 33.778681,0.905625 32.947431,0.774375 C32.116181,0.643125 31.280556,0.5775 30.440556,0.5775 C30.230556,0.5775 29.963681,0.581875 29.639931,0.590625 C29.316181,0.599375 28.974931,0.608125 28.616181,0.616875 C28.257431,0.625625 27.911806,0.634375 27.579306,0.643125 C27.246806,0.651875 26.966806,0.65625 26.739306,0.65625 C26.599306,0.65625 26.398056,0.651875 26.135556,0.643125 C25.873056,0.634375 25.579931,0.625625 25.256181,0.616875 C24.932431,0.608125 24.586806,0.599375 24.219306,0.590625 C23.851806,0.581875 23.493056,0.5775 23.143056,0.5775 C22.758056,0.5775 22.565556,0.65625 22.565556,0.81375 C22.565556,0.97125 22.714306,1.05 23.011806,1.05 C23.204306,1.05 23.396806,1.054375 23.589306,1.063125 C23.781806,1.071875 23.930556,1.09375 24.035556,1.12875 C24.473056,1.21625 24.761806,1.37375 24.901806,1.60125 C25.041806,1.82875 25.129306,2.17 25.164306,2.625 C25.181806,2.835 25.194931,3.058125 25.203681,3.294375 C25.210681,3.483375 25.214881,3.725575 25.216281,4.020975 L25.216806,12.81 C25.216806,14.0175 25.212431,15.11125 25.203681,16.09125 C25.194931,17.07125 25.155556,17.84125 25.085556,18.40125 C25.033056,18.78625 24.958681,19.11 24.862431,19.3725 C24.766181,19.635 24.586806,19.7925 24.324306,19.845 C24.201806,19.88 24.061806,19.90625 23.904306,19.92375 C23.746806,19.94125 23.571806,19.95 23.379306,19.95 C23.099306,19.95 22.959306,20.02 22.959306,20.16 C22.959306,20.335 23.134306,20.4225 23.484306,20.4225 C23.746806,20.4225 24.039931,20.418125 24.363681,20.409375 C24.687431,20.400625 24.998056,20.391875 25.295556,20.383125 C25.593056,20.374375 25.868681,20.365625 26.122431,20.356875 C26.376181,20.348125 26.564306,20.34375 26.686806,20.34375 C26.791806,20.34375 26.979931,20.348125 27.251181,20.356875 C27.522431,20.365625 27.837431,20.374375 28.196181,20.383125 C28.554931,20.391875 28.939931,20.400625 29.351181,20.409375 C29.762431,20.418125 30.160556,20.4225 30.545556,20.4225 C30.895556,20.4225 31.070556,20.335 31.070556,20.16 C31.070556,20.02 30.965556,19.95 30.755556,19.95 C30.598056,19.95 30.392431,19.94125 30.138681,19.92375 C29.884931,19.90625 29.661806,19.88 29.469306,19.845 C29.066806,19.7925 28.804306,19.635 28.681806,19.3725 C28.559306,19.11 28.480556,18.78625 28.445556,18.40125 C28.375556,17.84125 28.336181,17.07125 28.327431,16.09125 C28.319931,15.25125 28.3156453,14.32125 28.3145739,13.30125 L28.314306,12.41625 C28.314306,12.27625 28.384306,12.20625 28.524306,12.20625 L30.808056,12.25875 C31.018056,12.25875 31.175556,12.32 31.280556,12.4425 C31.368056,12.5475 31.503681,12.726875 31.687431,12.980625 C31.871181,13.234375 32.081181,13.5275 32.317431,13.86 C32.553681,14.1925 32.807431,14.55125 33.078681,14.93625 C33.349931,15.32125 33.616806,15.6975 33.879306,16.065 C34.614306,17.08 35.257431,17.9025 35.808681,18.5325 C36.359931,19.1625 36.915556,19.62625 37.475556,19.92375 C37.808056,20.11625 38.175556,20.2475 38.578056,20.3175 C38.980556,20.3875 39.549306,20.4225 40.284306,20.4225 L42.778056,20.4225 Z M30.545556,10.99875 C30.213056,10.99875 29.867431,10.976875 29.508681,10.933125 C29.149931,10.889375 28.830556,10.82375 28.550556,10.73625 C28.393056,10.66625 28.314306,10.50875 28.314306,10.26375 L28.314306,2.28375 C28.314306,2.09125 28.393056,1.96875 28.550556,1.91625 C28.778056,1.84625 29.241806,1.81125 29.941806,1.81125 C30.326806,1.81125 30.751181,1.885625 31.214931,2.034375 C31.678681,2.183125 32.116181,2.44125 32.527431,2.80875 C32.938681,3.17625 33.279931,3.670625 33.551181,4.291875 C33.822431,4.913125 33.958056,5.6875 33.958056,6.615 C33.958056,7.7 33.800556,8.553125 33.485556,9.174375 C33.170556,9.795625 32.811806,10.255 32.409306,10.5525 C32.286806,10.64 32.173056,10.71 32.068056,10.7625 C31.963056,10.815 31.840556,10.85875 31.700556,10.89375 C31.560556,10.92875 31.398681,10.955 31.214931,10.9725 C31.031181,10.99 30.808056,10.99875 30.545556,10.99875 Z M60.802362,20.4225 C61.292362,20.4225 61.616112,20.405 61.773612,20.37 C61.931112,20.335 62.009862,20.265 62.009862,20.16 C62.009862,20.02 61.896112,19.95 61.668612,19.95 C61.511112,19.95 61.336112,19.94125 61.143612,19.92375 C60.951112,19.90625 60.758612,19.88 60.566112,19.845 C60.426112,19.81 60.272987,19.753125 60.106737,19.674375 C59.940487,19.595625 59.761112,19.455625 59.568612,19.254375 C59.376112,19.053125 59.170487,18.773125 58.951737,18.414375 C58.732987,18.055625 58.501112,17.57875 58.256112,16.98375 C57.976112,16.31875 57.634862,15.491875 57.232362,14.503125 C56.829862,13.514375 56.405487,12.46 55.959237,11.34 C55.512987,10.22 55.062362,9.09125 54.607362,7.95375 C54.152362,6.81625 53.732362,5.7575 53.347362,4.7775 C52.962362,3.7975 52.625487,2.9575 52.336737,2.2575 C52.047987,1.5575 51.851112,1.085 51.746112,0.84 C51.501112,0.28 51.282362,0 51.089862,0 C50.949862,0 50.831737,0.07875 50.735487,0.23625 C50.639237,0.39375 50.512362,0.665 50.354862,1.05 L43.766112,17.535 C43.503612,18.2 43.219237,18.738125 42.912987,19.149375 C42.606737,19.560625 42.147362,19.81 41.534862,19.8975 C41.429862,19.915 41.298612,19.928125 41.141112,19.936875 C40.983612,19.945625 40.843612,19.95 40.721112,19.95 C40.511112,19.95 40.406112,20.02 40.406112,20.16 C40.406112,20.335 40.572362,20.4225 40.904862,20.4225 C41.237362,20.4225 41.574237,20.418125 41.915487,20.409375 C42.256737,20.400625 42.571737,20.391875 42.860487,20.383125 C43.149237,20.374375 43.394237,20.365625 43.595487,20.356875 C43.796737,20.348125 43.932362,20.34375 44.002362,20.34375 C44.404862,20.34375 44.864237,20.356875 45.380487,20.383125 C45.896737,20.409375 46.364862,20.4225 46.784862,20.4225 C47.082362,20.4225 47.231112,20.335 47.231112,20.16 C47.231112,20.0725 47.204862,20.015625 47.152362,19.989375 C47.099862,19.963125 46.994862,19.95 46.837362,19.95 L46.443612,19.95 C46.041112,19.95 45.765487,19.875625 45.616737,19.726875 C45.467987,19.578125 45.393612,19.38125 45.393612,19.13625 C45.393612,18.97875 45.424237,18.755625 45.485487,18.466875 C45.546737,18.178125 45.647362,17.8675 45.787362,17.535 L47.204862,13.78125 C47.257362,13.64125 47.336112,13.57125 47.441112,13.57125 L53.294862,13.57125 C53.417362,13.57125 53.504862,13.6325 53.557362,13.755 L55.657362,19.32 C55.727362,19.4775 55.727362,19.60875 55.657362,19.71375 C55.587362,19.81875 55.508612,19.88875 55.421112,19.92375 C55.176112,19.94125 55.053612,20.02 55.053612,20.16 C55.053612,20.2475 55.123612,20.3 55.263612,20.3175 C55.403612,20.335 55.596112,20.3525 55.841112,20.37 C56.891112,20.405 57.862362,20.4225 58.754862,20.4225 L60.802362,20.4225 L60.802362,20.4225 Z M52.796112,12.25875 L47.966112,12.25875 C47.861112,12.25875 47.826112,12.1975 47.861112,12.075 L50.276112,5.6175 C50.293612,5.565 50.315487,5.5125 50.341737,5.46 C50.367987,5.4075 50.398612,5.38125 50.433612,5.38125 C50.468612,5.38125 50.494862,5.4075 50.512362,5.46 C50.529862,5.5125 50.547362,5.565 50.564862,5.6175 L52.927362,12.10125 C52.962362,12.20625 52.918612,12.25875 52.796112,12.25875 Z M71.791668,20.4225 C72.124168,20.4225 72.290418,20.335 72.290418,20.16 C72.290418,20.02 72.150418,19.95 71.870418,19.95 C71.677918,19.95 71.454793,19.94125 71.201043,19.92375 C70.947293,19.90625 70.724168,19.88 70.531668,19.845 C70.129168,19.7925 69.862293,19.6525 69.731043,19.425 C69.599793,19.1975 69.516668,18.90875 69.481668,18.55875 C69.429168,17.99875 69.398543,17.22 69.389793,16.2225 C69.382293,15.3675 69.3780073,14.4096429 69.3769359,13.3489286 L69.376668,4.2525 C69.376668,3.85 69.381043,3.530625 69.389793,3.294375 C69.398543,3.058125 69.411668,2.835 69.429168,2.625 C69.464168,2.17 69.547293,1.824375 69.678543,1.588125 C69.809793,1.351875 70.050418,1.19875 70.400418,1.12875 C70.557918,1.09375 70.693543,1.071875 70.807293,1.063125 C70.921043,1.054375 71.047918,1.05 71.187918,1.05 C71.467918,1.05 71.607918,0.9625 71.607918,0.7875 C71.607918,0.6475 71.424168,0.5775 71.056668,0.5775 C70.811668,0.5775 70.536043,0.581875 70.229793,0.590625 C69.923543,0.599375 69.621668,0.608125 69.324168,0.616875 C69.026668,0.625625 68.746668,0.634375 68.484168,0.643125 C68.221668,0.651875 68.011668,0.65625 67.854168,0.65625 C67.661668,0.65625 67.421043,0.651875 67.132293,0.643125 C66.843543,0.634375 66.541668,0.625625 66.226668,0.616875 C65.911668,0.608125 65.596668,0.599375 65.281668,0.590625 C64.966668,0.581875 64.686668,0.5775 64.441668,0.5775 C64.021668,0.5775 63.811668,0.6475 63.811668,0.7875 C63.811668,0.9625 63.951668,1.05 64.231668,1.05 C64.389168,1.05 64.551043,1.05875 64.717293,1.07625 C64.883543,1.09375 65.036668,1.12 65.176668,1.155 C65.719168,1.2775 66.016668,1.7675 66.069168,2.625 C66.086668,2.835 66.099793,3.058125 66.108543,3.294375 C66.117293,3.530625 66.121668,3.85 66.121668,4.2525 L66.121668,12.81 C66.121668,14.0875 66.117293,15.220625 66.108543,16.209375 C66.099793,17.198125 66.060418,17.9725 65.990418,18.5325 C65.955418,18.9175 65.885418,19.219375 65.780418,19.438125 C65.675418,19.656875 65.491668,19.7925 65.229168,19.845 C65.106668,19.88 64.966668,19.90625 64.809168,19.92375 C64.651668,19.94125 64.476668,19.95 64.284168,19.95 C64.004168,19.95 63.864168,20.02 63.864168,20.16 C63.864168,20.335 64.039168,20.4225 64.389168,20.4225 C64.651668,20.4225 64.944793,20.418125 65.268543,20.409375 C65.592293,20.400625 65.907293,20.391875 66.213543,20.383125 C66.519793,20.374375 66.804168,20.365625 67.066668,20.356875 C67.329168,20.348125 67.539168,20.34375 67.696668,20.34375 C68.046668,20.34375 68.597918,20.356875 69.350418,20.383125 C70.102918,20.409375 70.916668,20.4225 71.791668,20.4225 Z M88.608474,20.79 C89.115974,20.79 89.654099,20.7725 90.222849,20.7375 C90.791599,20.7025 91.351599,20.636875 91.902849,20.540625 C92.454099,20.444375 92.992224,20.321875 93.517224,20.173125 C94.042224,20.024375 94.514724,19.83625 94.934724,19.60875 C95.092224,19.52125 95.188474,19.429375 95.223474,19.333125 C95.258474,19.236875 95.275974,19.01375 95.275974,18.66375 L95.275974,14.0175 L95.275974,14.0175 C95.275974,13.4925 95.284724,13.02875 95.302224,12.62625 C95.319724,12.17125 95.402849,11.825625 95.551599,11.589375 C95.700349,11.353125 95.949724,11.2 96.299724,11.13 C96.457224,11.095 96.588474,11.073125 96.693474,11.064375 C96.798474,11.055625 96.903474,11.05125 97.008474,11.05125 C97.235974,11.05125 97.349724,10.98125 97.349724,10.84125 C97.349724,10.66625 97.174724,10.57875 96.824724,10.57875 C96.614724,10.57875 96.374099,10.583125 96.102849,10.591875 C95.831599,10.600625 95.555974,10.609375 95.275974,10.618125 C94.995974,10.626875 94.724724,10.635625 94.462224,10.644375 C94.199724,10.653125 93.963474,10.6575 93.753474,10.6575 C93.560974,10.6575 93.315974,10.653125 93.018474,10.644375 C92.720974,10.635625 92.401599,10.626875 92.060349,10.618125 C91.719099,10.609375 91.364724,10.600625 90.997224,10.591875 C90.629724,10.583125 90.279724,10.57875 89.947224,10.57875 C89.579724,10.57875 89.395974,10.66625 89.395974,10.84125 C89.395974,10.98125 89.527224,11.05125 89.789724,11.05125 C89.982224,11.05125 90.174724,11.055625 90.367224,11.064375 C90.559724,11.073125 90.708474,11.095 90.813474,11.13 C91.250974,11.2175 91.544099,11.375 91.692849,11.6025 C91.841599,11.83 91.924724,12.17125 91.942224,12.62625 C91.959724,13.02875 91.968474,13.48375 91.968474,13.99125 L91.968474,18.19125 C91.968474,18.41875 91.933474,18.615625 91.863474,18.781875 C91.793474,18.948125 91.662224,19.075 91.469724,19.1625 C91.154724,19.3025 90.791599,19.385625 90.380349,19.411875 C89.969099,19.438125 89.588474,19.45125 89.238474,19.45125 C87.855974,19.45125 86.600349,19.201875 85.471599,18.703125 C84.342849,18.204375 83.380349,17.513125 82.584099,16.629375 C81.787849,15.745625 81.175349,14.704375 80.746599,13.505625 C80.317849,12.306875 80.103474,10.99875 80.103474,9.58125 C80.103474,7.95375 80.322224,6.628125 80.759724,5.604375 C81.197224,4.580625 81.783474,3.7625 82.518474,3.15 C82.973474,2.765 83.432849,2.463125 83.896599,2.244375 C84.360349,2.025625 84.815349,1.86375 85.261599,1.75875 C85.707849,1.65375 86.136599,1.588125 86.547849,1.561875 C86.959099,1.535625 87.348474,1.5225 87.715974,1.5225 C88.450974,1.5225 89.133474,1.588125 89.763474,1.719375 C90.393474,1.850625 90.957849,2.02125 91.456599,2.23125 C91.955349,2.44125 92.384099,2.664375 92.742849,2.900625 C93.101599,3.136875 93.377224,3.36 93.569724,3.57 C93.919724,3.9375 94.147224,4.318125 94.252224,4.711875 C94.357224,5.105625 94.427224,5.45125 94.462224,5.74875 C94.497224,5.97625 94.584724,6.09 94.724724,6.09 C94.829724,6.09 94.904099,6.050625 94.947849,5.971875 C94.991599,5.893125 95.013474,5.74875 95.013474,5.53875 C95.013474,4.71625 95.022224,4.0425 95.039724,3.5175 C95.057224,2.9925 95.079099,2.5725 95.105349,2.2575 C95.131599,1.9425 95.153474,1.710625 95.170974,1.561875 C95.188474,1.413125 95.197224,1.30375 95.197224,1.23375 C95.197224,1.14625 95.175349,1.07625 95.131599,1.02375 C95.087849,0.97125 94.987224,0.93625 94.829724,0.91875 C94.532224,0.90125 94.182224,0.861875 93.779724,0.800625 C93.377224,0.739375 93.035974,0.6825 92.755974,0.63 C92.615974,0.6125 92.384099,0.5775 92.060349,0.525 C91.736599,0.4725 91.355974,0.424375 90.918474,0.380625 C90.480974,0.336875 90.017224,0.2975 89.527224,0.2625 C89.037224,0.2275 88.564724,0.21 88.109724,0.21 C87.549724,0.21 86.989724,0.2275 86.429724,0.2625 C85.869724,0.2975 85.292224,0.37625 84.697224,0.49875 C84.102224,0.62125 83.502849,0.791875 82.899099,1.010625 C82.295349,1.229375 81.678474,1.53125 81.048474,1.91625 C80.453474,2.28375 79.880349,2.73875 79.329099,3.28125 C78.777849,3.82375 78.292224,4.45375 77.872224,5.17125 C77.452224,5.88875 77.115349,6.69375 76.861599,7.58625 C76.607849,8.47875 76.480974,9.45 76.480974,10.5 C76.480974,12.32 76.809099,13.8775 77.465349,15.1725 C78.121599,16.4675 79.009724,17.530625 80.129724,18.361875 C81.249724,19.193125 82.540349,19.805625 84.001599,20.199375 C85.462849,20.593125 86.998474,20.79 88.608474,20.79 Z" id="CRAIG"></path>
            <path d="M117.0325,20.29125 C118.24,20.29125 119.285625,20.125 120.169375,19.7925 C121.053125,19.46 121.779375,19.0225 122.348125,18.48 C122.916875,17.9375 123.34125,17.325 123.62125,16.6425 C123.90125,15.96 124.04125,15.26875 124.04125,14.56875 C124.04125,13.79875 123.8925,13.1075 123.595,12.495 C123.2975,11.8825 122.916875,11.34 122.453125,10.8675 C121.989375,10.395 121.4775,9.996875 120.9175,9.673125 C120.3575,9.349375 119.80625,9.09125 119.26375,8.89875 C119.63125,8.61875 119.976875,8.32125 120.300625,8.00625 C120.624375,7.69125 120.90875,7.35 121.15375,6.9825 C121.39875,6.615 121.59125,6.2125 121.73125,5.775 C121.87125,5.3375 121.94125,4.8475 121.94125,4.305 C121.94125,3.955 121.87125,3.5525 121.73125,3.0975 C121.59125,2.6425 121.32,2.21375 120.9175,1.81125 C120.515,1.40875 119.950625,1.0675 119.224375,0.7875 C118.498125,0.5075 117.54,0.3675 116.35,0.3675 C115.895,0.3675 115.409375,0.380625 114.893125,0.406875 C114.376875,0.433125 113.795,0.44625 113.1475,0.44625 C113.0075,0.44625 112.810625,0.441875 112.556875,0.433125 C112.303125,0.424375 112.014375,0.415625 111.690625,0.406875 C111.366875,0.398125 111.02125,0.389375 110.65375,0.380625 C110.28625,0.371875 109.9275,0.3675 109.5775,0.3675 C109.1925,0.3675 109,0.44625 109,0.60375 C109,0.76125 109.14875,0.84 109.44625,0.84 C109.63875,0.84 109.83125,0.844375 110.02375,0.853125 C110.21625,0.861875 110.365,0.88375 110.47,0.91875 C110.9075,1.00625 111.19625,1.16375 111.33625,1.39125 C111.47625,1.61875 111.56375,1.96 111.59875,2.415 C111.61625,2.625 111.629375,2.848125 111.638125,3.084375 C111.646875,3.320625 111.65125,3.64 111.65125,4.0425 L111.65125,12.6 C111.65125,13.8075 111.646875,14.90125 111.638125,15.88125 C111.629375,16.86125 111.59,17.63125 111.52,18.19125 C111.4675,18.57625 111.393125,18.9 111.296875,19.1625 C111.200625,19.425 111.02125,19.5825 110.75875,19.635 C110.63625,19.67 110.49625,19.69625 110.33875,19.71375 C110.18125,19.73125 110.00625,19.74 109.81375,19.74 C109.53375,19.74 109.39375,19.81 109.39375,19.95 C109.39375,20.125 109.56875,20.2125 109.91875,20.2125 C110.18125,20.2125 110.474375,20.20375 110.798125,20.18625 C111.121875,20.16875 111.4325,20.16 111.73,20.16 C112.045,20.1425 112.33375,20.13375 112.59625,20.13375 L113.22625,20.13375 L113.22625,20.13375 C113.41875,20.13375 113.694375,20.138125 114.053125,20.146875 C114.411875,20.155625 114.7925,20.1775 115.195,20.2125 C115.58,20.23 115.943125,20.2475 116.284375,20.265 C116.625625,20.2825 116.875,20.29125 117.0325,20.29125 Z M116.21875,8.79375 C115.62375,8.79375 115.2125,8.7675 114.985,8.715 C114.9325,8.6975 114.88875,8.67125 114.85375,8.63625 C114.81875,8.60125 114.80125,8.53125 114.80125,8.42625 L114.80125,1.9425 C114.80125,1.6975 114.88,1.54875 115.0375,1.49625 C115.1775,1.46125 115.30875,1.44375 115.43125,1.44375 L115.90375,1.44375 L115.90375,1.44375 C116.46375,1.44375 116.949375,1.575 117.360625,1.8375 C117.771875,2.1 118.113125,2.428125 118.384375,2.821875 C118.655625,3.215625 118.856875,3.653125 118.988125,4.134375 C119.119375,4.615625 119.185,5.075 119.185,5.5125 C119.185,6.79 118.82625,7.7175 118.10875,8.295 C117.88125,8.4875 117.61875,8.61875 117.32125,8.68875 C117.02375,8.75875 116.65625,8.79375 116.21875,8.79375 Z M117.63625,19.11 C117.33875,19.11 117.0325,19.0925 116.7175,19.0575 C116.4025,19.0225 116.07,18.935 115.72,18.795 C115.51,18.7075 115.34375,18.606875 115.22125,18.493125 C115.09875,18.379375 115.006875,18.230625 114.945625,18.046875 C114.884375,17.863125 114.845,17.63125 114.8275,17.35125 C114.81,17.07125 114.80125,16.7125 114.80125,16.275 L114.80125,10.05375 C114.80125,9.93125 114.85375,9.87 114.95875,9.87 L115.48375,9.87 L115.48375,9.87 C115.64125,9.87 115.8425,9.87875 116.0875,9.89625 C116.595,9.93125 117.015,9.996875 117.3475,10.093125 C117.68,10.189375 117.98625,10.33375 118.26625,10.52625 C118.75625,10.87625 119.1675,11.27 119.5,11.7075 C119.8325,12.145 120.095,12.595625 120.2875,13.059375 C120.48,13.523125 120.615625,13.986875 120.694375,14.450625 C120.773125,14.914375 120.8125,15.3475 120.8125,15.75 C120.8125,16.4325 120.703125,16.9925 120.484375,17.43 C120.265625,17.8675 119.994375,18.20875 119.670625,18.45375 C119.346875,18.69875 119.00125,18.869375 118.63375,18.965625 C118.26625,19.061875 117.93375,19.11 117.63625,19.11 Z M138.7625,20.58 C140.425,20.58 141.925625,20.3 143.264375,19.74 C144.603125,19.18 145.745,18.414375 146.69,17.443125 C147.635,16.471875 148.36125,15.334375 148.86875,14.030625 C149.37625,12.726875 149.63,11.3225 149.63,9.8175 C149.63,8.3125 149.385,6.95625 148.895,5.74875 C148.405,4.54125 147.700625,3.50875 146.781875,2.65125 C145.863125,1.79375 144.7475,1.1375 143.435,0.6825 C142.1225,0.2275 140.6525,0 139.025,0 C137.0475,0 135.371875,0.32375 133.998125,0.97125 C132.624375,1.61875 131.50875,2.445625 130.65125,3.451875 C129.79375,4.458125 129.168125,5.569375 128.774375,6.785625 C128.380625,8.001875 128.18375,9.17 128.18375,10.29 C128.18375,11.445 128.380625,12.630625 128.774375,13.846875 C129.168125,15.063125 129.79375,16.17 130.65125,17.1675 C131.50875,18.165 132.6025,18.983125 133.9325,19.621875 C135.2625,20.260625 136.8725,20.58 138.7625,20.58 Z M139.865,19.2675 C138.605,19.2675 137.47625,19.01375 136.47875,18.50625 C135.48125,17.99875 134.636875,17.303125 133.945625,16.419375 C133.254375,15.535625 132.725,14.49875 132.3575,13.30875 C131.99,12.11875 131.80625,10.84125 131.80625,9.47625 C131.80625,7.84875 132.003125,6.50125 132.396875,5.43375 C132.790625,4.36625 133.29375,3.52625 133.90625,2.91375 C134.51875,2.30125 135.21,1.8725 135.98,1.6275 C136.75,1.3825 137.51125,1.26 138.26375,1.26 C139.33125,1.26 140.333125,1.47875 141.269375,1.91625 C142.205625,2.35375 143.02375,2.988125 143.72375,3.819375 C144.42375,4.650625 144.970625,5.6525 145.364375,6.825 C145.758125,7.9975 145.955,9.31875 145.955,10.78875 C145.955,12.04875 145.845625,13.13375 145.626875,14.04375 C145.408125,14.95375 145.12375,15.72375 144.77375,16.35375 C144.42375,16.98375 144.03,17.49125 143.5925,17.87625 C143.155,18.26125 142.70875,18.554375 142.25375,18.755625 C141.79875,18.956875 141.36125,19.0925 140.94125,19.1625 C140.52125,19.2325 140.1625,19.2675 139.865,19.2675 Z M164.45625,20.58 C166.11875,20.58 167.619375,20.3 168.958125,19.74 C170.296875,19.18 171.43875,18.414375 172.38375,17.443125 C173.32875,16.471875 174.055,15.334375 174.5625,14.030625 C175.07,12.726875 175.32375,11.3225 175.32375,9.8175 C175.32375,8.3125 175.07875,6.95625 174.58875,5.74875 C174.09875,4.54125 173.394375,3.50875 172.475625,2.65125 C171.556875,1.79375 170.44125,1.1375 169.12875,0.6825 C167.81625,0.2275 166.34625,0 164.71875,0 C162.74125,0 161.065625,0.32375 159.691875,0.97125 C158.318125,1.61875 157.2025,2.445625 156.345,3.451875 C155.4875,4.458125 154.861875,5.569375 154.468125,6.785625 C154.074375,8.001875 153.8775,9.17 153.8775,10.29 C153.8775,11.445 154.074375,12.630625 154.468125,13.846875 C154.861875,15.063125 155.4875,16.17 156.345,17.1675 C157.2025,18.165 158.29625,18.983125 159.62625,19.621875 C160.95625,20.260625 162.56625,20.58 164.45625,20.58 Z M165.55875,19.2675 C164.29875,19.2675 163.17,19.01375 162.1725,18.50625 C161.175,17.99875 160.330625,17.303125 159.639375,16.419375 C158.948125,15.535625 158.41875,14.49875 158.05125,13.30875 C157.68375,12.11875 157.5,10.84125 157.5,9.47625 C157.5,7.84875 157.696875,6.50125 158.090625,5.43375 C158.484375,4.36625 158.9875,3.52625 159.6,2.91375 C160.2125,2.30125 160.90375,1.8725 161.67375,1.6275 C162.44375,1.3825 163.205,1.26 163.9575,1.26 C165.025,1.26 166.026875,1.47875 166.963125,1.91625 C167.899375,2.35375 168.7175,2.988125 169.4175,3.819375 C170.1175,4.650625 170.664375,5.6525 171.058125,6.825 C171.451875,7.9975 171.64875,9.31875 171.64875,10.78875 C171.64875,12.04875 171.539375,13.13375 171.320625,14.04375 C171.101875,14.95375 170.8175,15.72375 170.4675,16.35375 C170.1175,16.98375 169.72375,17.49125 169.28625,17.87625 C168.84875,18.26125 168.4025,18.554375 167.9475,18.755625 C167.4925,18.956875 167.055,19.0925 166.635,19.1625 C166.215,19.2325 165.85625,19.2675 165.55875,19.2675 Z M200.2825,20.2125 C200.5275,20.2125 200.69375,20.190625 200.78125,20.146875 C200.86875,20.103125 200.9125,20.0375 200.9125,19.95 C200.9125,19.81 200.79875,19.74 200.57125,19.74 C200.41375,19.74 200.20375,19.71375 199.94125,19.66125 C199.67875,19.60875 199.34625,19.50375 198.94375,19.34625 C198.22625,19.06625 197.565625,18.66375 196.961875,18.13875 C196.358125,17.61375 195.7675,17.07125 195.19,16.51125 C195.015,16.35375 194.74375,16.078125 194.37625,15.684375 C194.00875,15.290625 193.584375,14.844375 193.103125,14.345625 C192.621875,13.846875 192.11875,13.313125 191.59375,12.744375 C191.06875,12.175625 190.574375,11.62875 190.110625,11.10375 C189.646875,10.57875 189.23125,10.110625 188.86375,9.699375 C188.49625,9.288125 188.23375,8.9775 188.07625,8.7675 C188.21625,8.61 188.439375,8.378125 188.745625,8.071875 L189.23125,7.58625 C189.401875,7.415625 189.58125,7.23625 189.769375,7.048125 L191.743958,5.07354167 C191.871319,4.94618056 191.99625,4.82125 192.11875,4.69875 C192.48625,4.33125 192.814375,4.0075 193.103125,3.7275 C193.391875,3.4475 193.60625,3.2375 193.74625,3.0975 C194.30625,2.5375 194.818125,2.10875 195.281875,1.81125 C195.745625,1.51375 196.17875,1.28625 196.58125,1.12875 C196.82625,1.04125 197.093125,0.97125 197.381875,0.91875 C197.670625,0.86625 197.91125,0.84 198.10375,0.84 C198.36625,0.84 198.4975,0.76125 198.4975,0.60375 C198.4975,0.44625 198.34875,0.3675 198.05125,0.3675 C197.84125,0.3675 197.605,0.371875 197.3425,0.380625 C197.08,0.389375 196.804375,0.398125 196.515625,0.406875 C196.226875,0.415625 195.95125,0.424375 195.68875,0.433125 C195.42625,0.441875 195.19,0.44625 194.98,0.44625 C194.805,0.44625 194.590625,0.441875 194.336875,0.433125 C194.083125,0.424375 193.825,0.415625 193.5625,0.406875 C193.3,0.398125 193.055,0.389375 192.8275,0.380625 C192.6,0.371875 192.41625,0.3675 192.27625,0.3675 C191.99625,0.3675 191.85625,0.44625 191.85625,0.60375 C191.85625,0.72625 191.97,0.81375 192.1975,0.86625 C192.4425,0.91875 192.565,1.09375 192.565,1.39125 C192.565,1.61875 192.438125,1.894375 192.184375,2.218125 C191.930625,2.541875 191.62,2.9225 191.2525,3.36 C191.13,3.5175 190.92875,3.745 190.64875,4.0425 C190.36875,4.34 190.049375,4.6725 189.690625,5.04 C189.331875,5.4075 188.955625,5.796875 188.561875,6.208125 C188.168125,6.619375 187.7875,7.0175 187.42,7.4025 C187.0525,7.7875 186.72,8.133125 186.4225,8.439375 C186.125,8.745625 185.90625,8.9775 185.76625,9.135 L185.635,9.135 L185.635,4.0425 C185.635,3.64 185.639375,3.320625 185.648125,3.084375 C185.656875,2.848125 185.67,2.625 185.6875,2.415 C185.7225,1.96 185.805625,1.614375 185.936875,1.378125 C186.068125,1.141875 186.30875,0.98875 186.65875,0.91875 C186.81625,0.88375 186.943125,0.861875 187.039375,0.853125 C187.135625,0.844375 187.25375,0.84 187.39375,0.84 C187.63875,0.84 187.76125,0.76125 187.76125,0.60375 C187.76125,0.44625 187.5775,0.3675 187.21,0.3675 C186.9825,0.3675 186.72,0.371875 186.4225,0.380625 C186.125,0.389375 185.823125,0.398125 185.516875,0.406875 C185.210625,0.415625 184.92625,0.424375 184.66375,0.433125 C184.40125,0.441875 184.19125,0.44625 184.03375,0.44625 C183.87625,0.44625 183.661875,0.441875 183.390625,0.433125 C183.119375,0.424375 182.8175,0.415625 182.485,0.406875 C182.1525,0.398125 181.8025,0.389375 181.435,0.380625 C181.0675,0.371875 180.70875,0.3675 180.35875,0.3675 C179.97375,0.3675 179.78125,0.44625 179.78125,0.60375 C179.78125,0.76125 179.93,0.84 180.2275,0.84 C180.42,0.84 180.6125,0.844375 180.805,0.853125 C180.9975,0.861875 181.14625,0.88375 181.25125,0.91875 C181.68875,1.00625 181.9775,1.16375 182.1175,1.39125 C182.2575,1.61875 182.345,1.96 182.38,2.415 C182.3975,2.625 182.410625,2.848125 182.419375,3.084375 C182.426375,3.273375 182.430575,3.515575 182.431975,3.810975 L182.4325,12.6 C182.4325,13.8075 182.428125,14.90125 182.419375,15.88125 C182.410625,16.86125 182.37125,17.63125 182.30125,18.19125 C182.24875,18.57625 182.174375,18.9 182.078125,19.1625 C181.981875,19.425 181.8025,19.5825 181.54,19.635 C181.4175,19.67 181.2775,19.69625 181.12,19.71375 C180.9625,19.73125 180.7875,19.74 180.595,19.74 C180.315,19.74 180.175,19.81 180.175,19.95 C180.175,20.125 180.35,20.2125 180.7,20.2125 C180.9625,20.2125 181.255625,20.208125 181.579375,20.199375 C181.903125,20.190625 182.218125,20.181875 182.524375,20.173125 C182.830625,20.164375 183.115,20.155625 183.3775,20.146875 C183.64,20.138125 183.85,20.13375 184.0075,20.13375 C184.165,20.13375 184.38375,20.138125 184.66375,20.146875 C184.94375,20.155625 185.254375,20.164375 185.595625,20.173125 C185.936875,20.181875 186.295625,20.190625 186.671875,20.199375 C187.048125,20.208125 187.42,20.2125 187.7875,20.2125 C188.12,20.2125 188.28625,20.125 188.28625,19.95 C188.28625,19.81 188.1725,19.74 187.945,19.74 C187.77,19.74 187.56,19.73125 187.315,19.71375 C187.07,19.69625 186.85125,19.67 186.65875,19.635 C186.32625,19.5825 186.094375,19.425 185.963125,19.1625 C185.831875,18.9 185.74875,18.585 185.71375,18.2175 C185.67875,17.6575 185.656875,16.883125 185.648125,15.894375 C185.640833,15.0704167 185.63658,14.1705035 185.635365,13.1946354 L185.635,10.21125 L185.76625,10.21125 L186.055,10.605 C186.1425,10.7275 186.348125,10.985625 186.671875,11.379375 C186.995625,11.773125 187.380625,12.2325 187.826875,12.7575 C188.273125,13.2825 188.754375,13.8425 189.270625,14.4375 C189.786875,15.0325 190.285625,15.596875 190.766875,16.130625 C191.248125,16.664375 191.68125,17.14125 192.06625,17.56125 C192.45125,17.98125 192.74,18.27875 192.9325,18.45375 C193.2125,18.69875 193.475,18.921875 193.72,19.123125 C193.965,19.324375 194.21,19.495 194.455,19.635 C194.7,19.775 194.9625,19.88875 195.2425,19.97625 C195.5225,20.06375 195.8375,20.125 196.1875,20.16 C196.4675,20.195 196.73875,20.2125 197.00125,20.2125 L200.2825,20.2125 Z M212.79875,20.29125 C213.04375,20.29125 213.249375,20.286875 213.415625,20.278125 C213.581875,20.269375 213.7175,20.243125 213.8225,20.199375 C213.9275,20.155625 214.00625,20.09 214.05875,20.0025 C214.11125,19.915 214.16375,19.78375 214.21625,19.60875 C214.25125,19.48625 214.28625,19.289375 214.32125,19.018125 C214.35625,18.746875 214.39125,18.466875 214.42625,18.178125 C214.46125,17.889375 214.491875,17.609375 214.518125,17.338125 C214.544375,17.066875 214.5575,16.8525 214.5575,16.695 C214.5575,16.555 214.54875,16.44125 214.53125,16.35375 C214.51375,16.26625 214.4525,16.2225 214.3475,16.2225 C214.2075,16.2225 214.11125,16.35375 214.05875,16.61625 C213.97125,17.15875 213.84,17.57875 213.665,17.87625 C213.49,18.17375 213.2275,18.40125 212.8775,18.55875 C212.5275,18.71625 212.11625,18.808125 211.64375,18.834375 C211.17125,18.860625 210.76,18.87375 210.41,18.87375 C209.745,18.87375 209.206875,18.843125 208.795625,18.781875 C208.384375,18.720625 208.069375,18.61125 207.850625,18.45375 C207.631875,18.29625 207.483125,18.073125 207.404375,17.784375 C207.325625,17.495625 207.2775,17.12375 207.26,16.66875 L207.26,10.52625 C207.26,10.35125 207.3125,10.26375 207.4175,10.26375 L208.17875,10.26375 L208.17875,10.26375 C208.54625,10.26375 208.926875,10.268125 209.320625,10.276875 C209.714375,10.285625 210.08625,10.294375 210.43625,10.303125 C210.78625,10.311875 211.0225,10.325 211.145,10.3425 C211.635,10.395 211.985,10.513125 212.195,10.696875 C212.405,10.880625 212.545,11.10375 212.615,11.36625 C212.65,11.54125 212.671875,11.7075 212.680625,11.865 C212.689375,12.0225 212.7025,12.17125 212.72,12.31125 C212.72,12.46875 212.79875,12.5475 212.95625,12.5475 C213.07875,12.5475 213.14875,12.490625 213.16625,12.376875 C213.18375,12.263125 213.1925,12.15375 213.1925,12.04875 C213.1925,11.99625 213.196875,11.9 213.205625,11.76 C213.214375,11.62 213.223125,11.4625 213.231875,11.2875 C213.240625,11.1125 213.25375,10.9375 213.27125,10.7625 C213.28875,10.5875 213.2975,10.43 213.2975,10.29 C213.35,9.625 213.398125,9.16125 213.441875,8.89875 C213.485625,8.63625 213.5075,8.46125 213.5075,8.37375 C213.5075,8.23375 213.44625,8.16375 213.32375,8.16375 C213.23625,8.16375 213.09625,8.2775 212.90375,8.505 C212.78125,8.645 212.619375,8.736875 212.418125,8.780625 C212.216875,8.824375 211.95875,8.86375 211.64375,8.89875 C211.48625,8.91625 211.20625,8.929375 210.80375,8.938125 C210.40125,8.946875 209.9725,8.95125 209.5175,8.95125 L207.44375,8.95125 L207.44375,8.95125 C207.32125,8.95125 207.26,8.855 207.26,8.6625 L207.26,2.02125 C207.26,1.84625 207.32125,1.75875 207.44375,1.75875 C207.56625,1.75875 207.81125,1.763125 208.17875,1.771875 C208.42375,1.77770833 208.676528,1.78354167 208.937083,1.789375 L209.33375,1.798125 C209.73625,1.806875 210.116875,1.815625 210.475625,1.824375 C210.834375,1.833125 211.06625,1.84625 211.17125,1.86375 C211.81875,1.95125 212.251875,2.07375 212.470625,2.23125 C212.689375,2.38875 212.8425,2.58125 212.93,2.80875 C213,2.96625 213.04375,3.14125 213.06125,3.33375 C213.07875,3.52625 213.0875,3.66625 213.0875,3.75375 C213.0875,3.99875 213.16625,4.12125 213.32375,4.12125 C213.41125,4.12125 213.4725,4.090625 213.5075,4.029375 C213.5425,3.968125 213.56875,3.9025 213.58625,3.8325 C213.60375,3.7625 213.616875,3.644375 213.625625,3.478125 C213.634375,3.311875 213.6475,3.136875 213.665,2.953125 C213.6825,2.769375 213.695625,2.59875 213.704375,2.44125 C213.713125,2.28375 213.7175,2.17 213.7175,2.1 C213.7525,1.4875 213.79625,1.071875 213.84875,0.853125 C213.90125,0.634375 213.9275,0.48125 213.9275,0.39375 C213.9275,0.23625 213.875,0.1575 213.77,0.1575 C213.7,0.1575 213.63,0.170625 213.56,0.196875 C213.49,0.223125 213.42,0.245 213.35,0.2625 C213.245,0.2975 213.091875,0.32375 212.890625,0.34125 C212.689375,0.35875 212.46625,0.385 212.22125,0.42 C212.13375,0.42 211.9325,0.424375 211.6175,0.433125 C211.3025,0.441875 210.92625,0.44625 210.48875,0.44625 L205.65875,0.44625 L205.65875,0.44625 C205.46625,0.44625 205.23,0.441875 204.95,0.433125 C204.67,0.424375 204.355,0.41125 204.005,0.39375 C203.6725,0.39375 203.3225,0.389375 202.955,0.380625 C202.5875,0.371875 202.22875,0.3675 201.87875,0.3675 C201.49375,0.3675 201.30125,0.44625 201.30125,0.60375 C201.30125,0.76125 201.45,0.84 201.7475,0.84 C201.94,0.84 202.1325,0.844375 202.325,0.853125 C202.5175,0.861875 202.66625,0.88375 202.77125,0.91875 C203.20875,1.00625 203.4975,1.16375 203.6375,1.39125 C203.7775,1.61875 203.865,1.96 203.9,2.415 C203.9175,2.625 203.930625,2.848125 203.939375,3.084375 C203.946375,3.273375 203.950575,3.515575 203.951975,3.810975 L203.9525,12.6 C203.9525,13.8075 203.948125,14.90125 203.939375,15.88125 C203.930625,16.86125 203.89125,17.63125 203.82125,18.19125 C203.76875,18.57625 203.694375,18.9 203.598125,19.1625 C203.501875,19.425 203.3225,19.5825 203.06,19.635 C202.9375,19.67 202.7975,19.69625 202.64,19.71375 C202.4825,19.73125 202.3075,19.74 202.115,19.74 C201.835,19.74 201.695,19.81 201.695,19.95 C201.695,20.125 201.87,20.2125 202.22,20.2125 C202.4825,20.2125 202.775625,20.20375 203.099375,20.18625 C203.423125,20.16875 203.73375,20.16 204.03125,20.16 C204.34625,20.1425 204.635,20.13375 204.8975,20.13375 L205.5275,20.13375 L205.5275,20.13375 C205.93,20.13375 206.345625,20.138125 206.774375,20.146875 C207.203125,20.155625 207.6975,20.1775 208.2575,20.2125 C208.8175,20.23 209.465,20.2475 210.2,20.265 C210.935,20.2825 211.80125,20.29125 212.79875,20.29125 Z M239.46375,20.2125 C239.79625,20.2125 239.9625,20.125 239.9625,19.95 C239.9625,19.81 239.8575,19.74 239.6475,19.74 C239.4375,19.74 239.1925,19.71375 238.9125,19.66125 C238.8075,19.64375 238.6675,19.613125 238.4925,19.569375 C238.3175,19.525625 238.103125,19.4425 237.849375,19.32 C237.595625,19.1975 237.31125,19.0225 236.99625,18.795 C236.68125,18.5675 236.34,18.26125 235.9725,17.87625 C235.185,17.05375 234.331875,16.069375 233.413125,14.923125 C232.494375,13.776875 231.44875,12.46 230.27625,10.9725 C230.94125,10.43 231.496875,9.909375 231.943125,9.410625 C232.389375,8.911875 232.74375,8.42625 233.00625,7.95375 C233.26875,7.48125 233.456875,7.00875 233.570625,6.53625 C233.684375,6.06375 233.74125,5.5825 233.74125,5.0925 C233.74125,4.655 233.684375,4.24375 233.570625,3.85875 C233.456875,3.47375 233.308125,3.128125 233.124375,2.821875 C232.940625,2.515625 232.74375,2.24875 232.53375,2.02125 C232.32375,1.79375 232.13125,1.61875 231.95625,1.49625 C231.23875,1.00625 230.464375,0.695625 229.633125,0.564375 C228.801875,0.433125 227.96625,0.3675 227.12625,0.3675 C226.91625,0.3675 226.649375,0.371875 226.325625,0.380625 C226.001875,0.389375 225.660625,0.398125 225.301875,0.406875 C224.943125,0.415625 224.5975,0.424375 224.265,0.433125 C223.9325,0.441875 223.6525,0.44625 223.425,0.44625 C223.285,0.44625 223.08375,0.441875 222.82125,0.433125 C222.55875,0.424375 222.265625,0.415625 221.941875,0.406875 C221.618125,0.398125 221.2725,0.389375 220.905,0.380625 C220.5375,0.371875 220.17875,0.3675 219.82875,0.3675 C219.44375,0.3675 219.25125,0.44625 219.25125,0.60375 C219.25125,0.76125 219.4,0.84 219.6975,0.84 C219.89,0.84 220.0825,0.844375 220.275,0.853125 C220.4675,0.861875 220.61625,0.88375 220.72125,0.91875 C221.15875,1.00625 221.4475,1.16375 221.5875,1.39125 C221.7275,1.61875 221.815,1.96 221.85,2.415 C221.8675,2.625 221.880625,2.848125 221.889375,3.084375 C221.896375,3.273375 221.900575,3.515575 221.901975,3.810975 L221.9025,12.6 C221.9025,13.8075 221.898125,14.90125 221.889375,15.88125 C221.880625,16.86125 221.84125,17.63125 221.77125,18.19125 C221.71875,18.57625 221.644375,18.9 221.548125,19.1625 C221.451875,19.425 221.2725,19.5825 221.01,19.635 C220.8875,19.67 220.7475,19.69625 220.59,19.71375 C220.4325,19.73125 220.2575,19.74 220.065,19.74 C219.785,19.74 219.645,19.81 219.645,19.95 C219.645,20.125 219.82,20.2125 220.17,20.2125 C220.4325,20.2125 220.725625,20.208125 221.049375,20.199375 C221.373125,20.190625 221.68375,20.181875 221.98125,20.173125 C222.27875,20.164375 222.554375,20.155625 222.808125,20.146875 C223.061875,20.138125 223.25,20.13375 223.3725,20.13375 C223.4775,20.13375 223.665625,20.138125 223.936875,20.146875 C224.208125,20.155625 224.523125,20.164375 224.881875,20.173125 C225.240625,20.181875 225.625625,20.190625 226.036875,20.199375 C226.448125,20.208125 226.84625,20.2125 227.23125,20.2125 C227.58125,20.2125 227.75625,20.125 227.75625,19.95 C227.75625,19.81 227.65125,19.74 227.44125,19.74 C227.28375,19.74 227.078125,19.73125 226.824375,19.71375 C226.570625,19.69625 226.3475,19.67 226.155,19.635 C225.7525,19.5825 225.49,19.425 225.3675,19.1625 C225.245,18.9 225.16625,18.57625 225.13125,18.19125 C225.06125,17.63125 225.021875,16.86125 225.013125,15.88125 C225.005625,15.04125 225.001339,14.11125 225.000268,13.09125 L225,12.20625 C225,12.06625 225.07,11.99625 225.21,11.99625 L227.49375,12.04875 C227.70375,12.04875 227.86125,12.11 227.96625,12.2325 C228.05375,12.3375 228.189375,12.516875 228.373125,12.770625 C228.556875,13.024375 228.766875,13.3175 229.003125,13.65 C229.239375,13.9825 229.493125,14.34125 229.764375,14.72625 C230.035625,15.11125 230.3025,15.4875 230.565,15.855 C231.3,16.87 231.943125,17.6925 232.494375,18.3225 C233.045625,18.9525 233.60125,19.41625 234.16125,19.71375 C234.49375,19.90625 234.86125,20.0375 235.26375,20.1075 C235.66625,20.1775 236.235,20.2125 236.97,20.2125 L239.46375,20.2125 Z M227.23125,10.78875 C226.89875,10.78875 226.553125,10.766875 226.194375,10.723125 C225.835625,10.679375 225.51625,10.61375 225.23625,10.52625 C225.07875,10.45625 225,10.29875 225,10.05375 L225,2.07375 C225,1.88125 225.07875,1.75875 225.23625,1.70625 C225.46375,1.63625 225.9275,1.60125 226.6275,1.60125 C227.0125,1.60125 227.436875,1.675625 227.900625,1.824375 C228.364375,1.973125 228.801875,2.23125 229.213125,2.59875 C229.624375,2.96625 229.965625,3.460625 230.236875,4.081875 C230.508125,4.703125 230.64375,5.4775 230.64375,6.405 C230.64375,7.49 230.48625,8.343125 230.17125,8.964375 C229.85625,9.585625 229.4975,10.045 229.095,10.3425 C228.9725,10.43 228.85875,10.5 228.75375,10.5525 C228.64875,10.605 228.52625,10.64875 228.38625,10.68375 C228.24625,10.71875 228.084375,10.745 227.900625,10.7625 C227.716875,10.78 227.49375,10.78875 227.23125,10.78875 Z" id="BOOKER"></path>
        </g>
    </g>
</svg>