<?xml version="1.0" encoding="UTF-8"?>
<svg width="32px" height="32px" viewBox="0 0 32 32" version="1.1" xmlns="http://www.w3.org/2000/svg" xmlns:xlink="http://www.w3.org/1999/xlink">
    <title>logosafari-pinned-tab</title>
    <g id="Page-1" stroke="none" stroke-width="1" fill="none" fill-rule="evenodd">
        <g id="Group" transform="translate(-30.000000, -5.000000)">
            <g id="ITECHPLUSIcon" transform="translate(30.000000, 5.000000)">
                <circle id="Oval" fill="#000000" cx="16" cy="16" r="16"></circle>
                <path d="M17.1525424,22.4915254 C17.4146436,22.4915254 17.6271186,22.6933767 17.6271186,22.9423729 L17.6271186,26.5491525 C17.6271186,26.7981487 17.4146436,27 17.1525424,27 L15.7288136,27 C15.4667123,27 15.2542373,26.7981487 15.2542373,26.5491525 L15.2542373,22.9423729 C15.2542373,22.6933767 15.4667123,22.4915254 15.7288136,22.4915254 L17.1525424,22.4915254 Z M10.0338983,19.0508475 C12.1962335,19.0508475 13.9491525,20.8037665 13.9491525,22.9661017 C13.9491525,25.1284369 12.1962335,26.8813559 10.0338983,26.8813559 C7.8715631,26.8813559 6.11864407,25.1284369 6.11864407,22.9661017 C6.11864407,20.8037665 7.8715631,19.0508475 10.0338983,19.0508475 Z M22.8474576,19.0508475 C25.0097928,19.0508475 26.7627119,20.8037665 26.7627119,22.9661017 C26.7627119,25.1284369 25.0097928,26.8813559 22.8474576,26.8813559 C20.6851224,26.8813559 18.9322034,25.1284369 18.9322034,22.9661017 C18.9322034,20.8037665 20.6851224,19.0508475 22.8474576,19.0508475 Z M10.0338983,20.4745763 C8.65786681,20.4745763 7.54237288,21.5900702 7.54237288,22.9661017 C7.54237288,24.3421332 8.65786681,25.4576271 10.0338983,25.4576271 C11.4099298,25.4576271 12.5254237,24.3421332 12.5254237,22.9661017 C12.5254237,21.5900702 11.4099298,20.4745763 10.0338983,20.4745763 Z M16.7966102,18.8135593 C17.0587114,18.8135593 17.2711864,19.0260344 17.2711864,19.2881356 L17.2711864,20.7118644 C17.2711864,20.9739656 17.0587114,21.1864407 16.7966102,21.1864407 L15.3728814,21.1864407 C15.1107801,21.1864407 14.8983051,20.9739656 14.8983051,20.7118644 L14.8983051,19.2881356 C14.8983051,19.0260344 15.1107801,18.8135593 15.3728814,18.8135593 L16.7966102,18.8135593 Z M10.0576271,15.3728814 C10.3066233,15.3728814 10.5084746,15.5853564 10.5084746,15.8474576 L10.5084746,17.2711864 C10.5084746,17.5332877 10.3066233,17.7457627 10.0576271,17.7457627 L6.45084746,17.7457627 C6.20185128,17.7457627 6,17.5332877 6,17.2711864 L6,15.8474576 C6,15.5853564 6.20185128,15.3728814 6.45084746,15.3728814 L10.0576271,15.3728814 Z M25.8135593,15.2542373 C26.4688124,15.2542373 27,15.4667123 27,15.7288136 L27,17.1525424 C27,17.4146436 26.4688124,17.6271186 25.8135593,17.6271186 L16.3220339,17.6271186 C15.6667808,17.6271186 15.1355932,17.4146436 15.1355932,17.1525424 L15.1355932,15.7288136 C15.1355932,15.4667123 15.6667808,15.2542373 16.3220339,15.2542373 L25.8135593,15.2542373 Z M13.4745763,15.2542373 C13.7366775,15.2542373 13.9491525,15.4667123 13.9491525,15.7288136 L13.9491525,17.1525424 C13.9491525,17.4146436 13.7366775,17.6271186 13.4745763,17.6271186 L12.0508475,17.6271186 C11.7887462,17.6271186 11.5762712,17.4146436 11.5762712,17.1525424 L11.5762712,15.7288136 C11.5762712,15.4667123 11.7887462,15.2542373 12.0508475,15.2542373 L13.4745763,15.2542373 Z M16.7966102,11.9322034 C17.0587114,11.9322034 17.2711864,12.1446784 17.2711864,12.4067797 L17.2711864,13.8305085 C17.2711864,14.0926097 17.0587114,14.3050847 16.7966102,14.3050847 L15.3728814,14.3050847 C15.1107801,14.3050847 14.8983051,14.0926097 14.8983051,13.8305085 L14.8983051,12.4067797 C14.8983051,12.1446784 15.1107801,11.9322034 15.3728814,11.9322034 L16.7966102,11.9322034 Z M10.0338983,6 C12.1962335,6 13.9491525,7.75291903 13.9491525,9.91525424 C13.9491525,12.0775894 12.1962335,13.8305085 10.0338983,13.8305085 C7.8715631,13.8305085 6.11864407,12.0775894 6.11864407,9.91525424 C6.11864407,7.75291903 7.8715631,6 10.0338983,6 Z M22.8474576,6 C25.0097928,6 26.7627119,7.75291903 26.7627119,9.91525424 C26.7627119,12.0775894 25.0097928,13.8305085 22.8474576,13.8305085 C20.6851224,13.8305085 18.9322034,12.0775894 18.9322034,9.91525424 C18.9322034,7.75291903 20.6851224,6 22.8474576,6 Z M22.8474576,7.42372881 C21.4714261,7.42372881 20.3559322,8.53922274 20.3559322,9.91525424 C20.3559322,11.2912857 21.4714261,12.4067797 22.8474576,12.4067797 C24.2234891,12.4067797 25.3389831,11.2912857 25.3389831,9.91525424 C25.3389831,8.53922274 24.2234891,7.42372881 22.8474576,7.42372881 Z M17.1525424,6.11864407 C17.4146436,6.11864407 17.6271186,6.32049535 17.6271186,6.56949153 L17.6271186,10.1762712 C17.6271186,10.4252674 17.4146436,10.6271186 17.1525424,10.6271186 L15.7288136,10.6271186 C15.4667123,10.6271186 15.2542373,10.4252674 15.2542373,10.1762712 L15.2542373,6.56949153 C15.2542373,6.32049535 15.4667123,6.11864407 15.7288136,6.11864407 L17.1525424,6.11864407 Z" id="QR-code-Copy" fill="#FFFFFF" transform="translate(16.500000, 16.500000) rotate(90.000000) translate(-16.500000, -16.500000) "></path>
            </g>
        </g>
    </g>
</svg>