<?xml version="1.0" encoding="UTF-8"?>
<svg width="32px" height="32px" viewBox="0 0 32 32" version="1.1" xmlns="http://www.w3.org/2000/svg" xmlns:xlink="http://www.w3.org/1999/xlink">
    <title>iconsafari-pinned-tab</title>
    <g id="Page-1" stroke="none" stroke-width="1" fill="none" fill-rule="evenodd">
        <g id="Group" transform="translate(-30.000000, -5.000000)" fill="#000000">
            <g id="Group-5-Copy" transform="translate(30.000000, 5.000000)">
                <path d="M17.4,25 C17.7313708,25 18,25.3134007 18,25.7 L18,31.3 C18,31.6865993 17.7313708,32 17.4,32 L15.6,32 C15.2686292,32 15,31.6865993 15,31.3 L15,25.7 C15,25.3134007 15.2686292,25 15.6,25 L17.4,25 Z M7,19 C10.3137085,19 13,21.6862915 13,25 C13,28.3137085 10.3137085,31 7,31 C3.6862915,31 1,28.3137085 1,25 C1,21.6862915 3.6862915,19 7,19 Z M25,19 C28.3137085,19 31,21.6862915 31,25 C31,28.3137085 28.3137085,31 25,31 C21.6862915,31 19,28.3137085 19,25 C19,21.6862915 21.6862915,19 25,19 Z M7,21 C4.790861,21 3,22.790861 3,25 C3,27.209139 4.790861,29 7,29 C9.209139,29 11,27.209139 11,25 C11,22.790861 9.209139,21 7,21 Z M17.4,20 C17.7313708,20 18,20.2686292 18,20.6 L18,22.4 C18,22.7313708 17.7313708,23 17.4,23 L15.6,23 C15.2686292,23 15,22.7313708 15,22.4 L15,20.6 C15,20.2686292 15.2686292,20 15.6,20 L17.4,20 Z M6.3,14 C6.68659932,14 7,14.2686292 7,14.6 L7,16.4 C7,16.7313708 6.68659932,17 6.3,17 L0.7,17 C0.313400675,17 1.33226763e-15,16.7313708 1.33226763e-15,16.4 L1.33226763e-15,14.6 C1.33226763e-15,14.2686292 0.313400675,14 0.7,14 L6.3,14 Z M30.3,14 C31.2388841,14 32,14.2686292 32,14.6 L32,16.4 C32,16.7313708 31.2388841,17 30.3,17 L16.7,17 C15.7611159,17 15,16.7313708 15,16.4 L15,14.6 C15,14.2686292 15.7611159,14 16.7,14 L30.3,14 Z M11.4,14 C11.7313708,14 12,14.2686292 12,14.6 L12,16.4 C12,16.7313708 11.7313708,17 11.4,17 L9.6,17 C9.26862915,17 9,16.7313708 9,16.4 L9,14.6 C9,14.2686292 9.26862915,14 9.6,14 L11.4,14 Z M17.4,9 C17.7313708,9 18,9.26862915 18,9.6 L18,11.4 C18,11.7313708 17.7313708,12 17.4,12 L15.6,12 C15.2686292,12 15,11.7313708 15,11.4 L15,9.6 C15,9.26862915 15.2686292,9 15.6,9 L17.4,9 Z M7,-2.0783375e-13 C10.3137085,-2.0783375e-13 13,2.6862915 13,6 C13,9.3137085 10.3137085,12 7,12 C3.6862915,12 1,9.3137085 1,6 C1,2.6862915 3.6862915,-2.0783375e-13 7,-2.0783375e-13 Z M25,-2.0783375e-13 C28.3137085,-2.0783375e-13 31,2.6862915 31,6 C31,9.3137085 28.3137085,12 25,12 C21.6862915,12 19,9.3137085 19,6 C19,2.6862915 21.6862915,-2.0783375e-13 25,-2.0783375e-13 Z M25,2 C22.790861,2 21,3.790861 21,6 C21,8.209139 22.790861,10 25,10 C27.209139,10 29,8.209139 29,6 C29,3.790861 27.209139,2 25,2 Z M17.4,-2.0783375e-13 C17.7313708,-2.0783375e-13 18,0.313400675 18,0.7 L18,6.3 C18,6.68659932 17.7313708,7 17.4,7 L15.6,7 C15.2686292,7 15,6.68659932 15,6.3 L15,0.7 C15,0.313400675 15.2686292,-2.0783375e-13 15.6,-2.0783375e-13 L17.4,-2.0783375e-13 Z" id="QR-code-Copy" transform="translate(16.000000, 16.000000) rotate(90.000000) translate(-16.000000, -16.000000) "></path>
            </g>
        </g>
    </g>
</svg>